<mxfile host="app.diagrams.net" modified="2024-01-17T06:11:31.424Z" agent="Mozilla/5.0 (Windows NT 10.0; Win64; x64) AppleWebKit/537.36 (KHTML, like Gecko) Chrome/120.0.0.0 Safari/537.36" version="22.1.20" etag="luhY7xodvyzoNRcCnxjD" type="github">
  <diagram name="第 1 页" id="4h_8LNl7LRUkmWftB9_z">
    <mxGraphModel>
      <root>
        <mxCell id="0" />
        <mxCell id="1" parent="0" />
      </root>
    </mxGraphModel>
  </diagram>
</mxfile>
